# xmcd
# Track frame offsets:
# 150
# 15560
# 34591
# 49423
# 66095
# 82221
# 99024
# 114791
# 130145
# 143986
# 163021
# 178759
#
# Disc length: 2602 seconds
# Revision: 0
# Processed by: cddbd v1.4PL0 Copyright (c) Steve Scherf et al.
# Submitted via: VisiTrax 2.9.5.181 - For more info visit www.synapsa.com
#
DISCID=9a0a280c
DTITLE=Stacy Collins - Stacy Collins
DYEAR=1900
DGENRE=
TTITLE0=Big Freight Train
TTITLE1=All She Needed
TTITLE2=Set Me Free
TTITLE3=I'm Tryin'
TTITLE4=Time To Fly
TTITLE5=When The Mornin' Comes
TTITLE6=Once Upon A Time
TTITLE7=Bandelion
TTITLE8=Charlie
TTITLE9=Blame It On Me
TTITLE10=Sweet Dream
TTITLE11=All My Dreams Come True
EXTD=
EXTT0=
EXTT1=
EXTT2=
EXTT3=
EXTT4=
EXTT5=
EXTT6=
EXTT7=
EXTT8=
EXTT9=
EXTT10=
EXTT11=
PLAYORDER=
